<svg id="Layer_1" data-name="Layer 1" xmlns="http://www.w3.org/2000/svg" viewBox="0 0 94.56 82"><defs><style>.cls-1{fill:#5291b9;}.cls-1,.cls-2,.cls-3{stroke:#30708d;stroke-miterlimit:10;stroke-width:2px;}.cls-2{fill:#8dcae8;}.cls-3{fill:#6dbfec;}</style></defs><title>PPP2</title><polyline class="cls-1" points="21.28 49 37.28 49 41.28 33 57.28 33 53.28 49 69.28 49 65.28 65 49.28 65 45.28 81 29.28 81 33.28 65 17.28 65 21.28 49"/><polyline class="cls-2" points="45.28 17 61.28 17 65.28 1 81.28 1 77.28 17 93.28 17 89.28 33 73.28 33 69.28 49 53.28 49 57.28 33 41.28 33 45.28 17"/><polyline class="cls-3" points="21.28 17 29.28 17 45.28 17 41.28 33 37.28 49 21.28 49 17.28 65 1.28 65 5.28 49 13.28 17 23.28 17"/></svg>